{
 "cells": [
  {
   "cell_type": "markdown",
   "metadata": {},
   "source": [
    "### Pressure Perturbation Analysis\n",
    "\n",
    "This notebook provides visualizations of altimter analyses and mesoscale pressure analyses. Pre-generated smartphone pressure analyses are used to produce bandpassed filtered pressure perturbation analysis. Animations are presented, depicting the evolution of altimeter (sea level pressure) on 14-15 of May, 2018. Mesoscale pressure perturbations are also displayed for the same period.\n",
    "\n",
    "1. Import relevant Python libraries and setup cartopy/colortables\n",
    "\n",
    "2. Retrieve smartphone (Kalman smoothed) pressure analyses and plot the synoptic distribution of pressure over a 24-h period.  \n",
    "\n",
    "3. Plot and save Kalman smoothed pressure analysis over the Mid-Atlantic region during two high-impact weather events (back to back derechoes). Produce a movie depicting the evolution fo the pressure and reflectivity over the two-day period.\n",
    "\n",
    "4. Demonstrate how mesoscale pressure perturbations are extracted from pressure analyses using band-pass filtering. Plot and save mesoscale pressure perturbations and composite reflectivity analyses over the two-day period from (3). From the saved images, produce a movies showing mesoscale pressure perturbations associated with convection."
   ]
  },
  {
   "cell_type": "code",
   "execution_count": 1,
   "metadata": {},
   "outputs": [
    {
     "data": {
      "text/html": [
       "<style>.container { width:100% !important; }</style>"
      ],
      "text/plain": [
       "<IPython.core.display.HTML object>"
      ]
     },
     "metadata": {},
     "output_type": "display_data"
    }
   ],
   "source": [
    "### ---- (1) ---- ####\n",
    "#Import Python libraries\n",
    "\n",
    "import os\n",
    "import sys\n",
    "sys.path.append('../../PyScripts')\n",
    "import xarray as xr\n",
    "import matplotlib\n",
    "from matplotlib import pyplot as plt\n",
    "import numpy as np\n",
    "import funcs\n",
    "import colorcet as cc\n",
    "import cmasher as cmr\n",
    "from datetime import datetime,timedelta\n",
    "from cartopy.feature import NaturalEarthFeature,BORDERS,LAKES,COLORS\n",
    "import cartopy.crs as crs\n",
    "from cartopy.mpl.gridliner import LONGITUDE_FORMATTER, LATITUDE_FORMATTER\n",
    "from metpy.plots import colortables\n",
    "from scipy import ndimage\n",
    "from scipy import signal\n",
    "from scipy.signal import butter, lfilter\n",
    "import multiprocessing\n",
    "from joblib import Parallel,delayed\n",
    "\n",
    "#Retrieve perceptually uniform colorbar from colorcet\n",
    "cmapp = cc.cm.rainbow_bgyrm_35_85_c71\n",
    "\n",
    "#Set format for datetime objects\n",
    "fmt = '%Y%m%d_%H%M'\n",
    "\n",
    "# Download/add state and coastline features for cartopy \n",
    "states = NaturalEarthFeature(category=\"cultural\", scale=\"10m\",\n",
    "                             facecolor=\"none\",\n",
    "                             name=\"admin_1_states_provinces_shp\")\n",
    "\n",
    "land_50m = NaturalEarthFeature('physical', 'land', '10m',\n",
    "                                        edgecolor='k',\n",
    "                                        facecolor='none')\n",
    "\n",
    "#Define function to add map data to matplotlib plot\n",
    "def add_map(ax,clr,lw):\n",
    "    ax.add_feature(states)\n",
    "    ax.add_feature(BORDERS)\n",
    "    ax.add_feature(land_50m)\n",
    "    ax.add_feature(states,edgecolor=clr,lw=lw)\n",
    "    ax.add_feature(LAKES, edgecolor=clr)\n",
    "\n",
    "#Define function to add latitude/longitude grid lines to cartopy/matplotlib plot\n",
    "def add_gridlines(ax,xl,yl,clr, fs):\n",
    "    gl = ax.gridlines(crs=crs.PlateCarree(), draw_labels=True,\n",
    "                      linewidth=0.25, color=clr, alpha=1, linestyle='--')\n",
    "\n",
    "    gl.xlabels_bottom = xl\n",
    "    gl.xlabels_top = False\n",
    "    gl.ylabels_left = yl\n",
    "    gl.ylabels_right = False\n",
    "\n",
    "    gl.xformatter = LONGITUDE_FORMATTER\n",
    "    gl.yformatter = LATITUDE_FORMATTER\n",
    "    gl.xlabel_style = {'size': fs, 'color': clr}\n",
    "    gl.ylabel_style = {'size': fs, 'color': clr}\n",
    "    return gl\n",
    "\n",
    "#Get Composite Reflectivity colormap from metpy\n",
    "ctable1 = 'NWSStormClearReflectivity'\n",
    "cmapp = cc.cm.rainbow_bgyrm_35_85_c71\n",
    "norm, cmapp_radar = colortables.get_with_steps(ctable1, 244, 244)\n",
    "\n",
    "#Increase with of notebook to fill screen\n",
    "from IPython.core.display import display, HTML\n",
    "display(HTML(\"<style>.container { width:100% !important; }</style>\"))\n",
    "\n",
    "#Define function to mask pressure analyses over water\n",
    "def mask_grid(arr):\n",
    "    arr = np.ma.masked_where(landsea==0,arr)\n",
    "    return arr\n",
    "\n",
    "#Define function to read and subset a land/sea boolean grid\n",
    "def get_landsea():\n",
    "    ds_land = xr.open_dataset('../../../data/Static/landsea.nc')\n",
    "    ds_land = funcs.subset(ds_land,minLat,maxLat,minLng,maxLng)\n",
    "    landsea = ds_land['LANDSEA'].values\n",
    "    landsea = np.pad(landsea, ((0,1),(0,1)), 'edge')\n",
    "    ds_land.close()\n",
    "    return landsea"
   ]
  },
  {
   "cell_type": "code",
   "execution_count": 2,
   "metadata": {},
   "outputs": [],
   "source": [
    "#---- (2) ---- #\n",
    "\n",
    "#Set date, date format, and observation type\n",
    "day = '20180414'\n",
    "otyp = 'altimeter'\n",
    "fmt = '%Y%m%d_%H%M'\n",
    "\n",
    "minLng = -105.5; maxLng = -70.5; minLat = 28.5; maxLat = 48.5\n",
    "\n",
    "#Define bounding box for analysis\n",
    " #Get land/sea boolean within bounding box\n",
    "landsea = get_landsea()\n",
    "\n",
    "#Retrieve pre-generated Kalman smoothed LatticeKrig pressure analysis for 14 April, 2018.\n",
    "ds_all = xr.open_dataset('../../../data/KF/kfsmart_full_altimeter_'+day+'.nc')\n",
    "#Convert analysis time to list of datetime objects\n",
    "dts = ds_all['Valid'].values\n",
    "dtlist = [datetime.utcfromtimestamp(d/1e9).strftime(fmt) for d in dts.tolist()]\n",
    "\n",
    "#Retrieve altimeter grid and latitude/longitude dims\n",
    "alts_kf = ds_all['altimeter_rts'].values\n",
    "ygrid = ds_all['longitude'].values; xgrid = ds_all['latitude'].values\n",
    "X,Y = np.meshgrid(ygrid,xgrid) #Generate 2D coordinate grid for contouring\n",
    "ds_all.close()"
   ]
  },
  {
   "cell_type": "code",
   "execution_count": 3,
   "metadata": {},
   "outputs": [],
   "source": [
    "#Set lower and upper bounds for pressure colorbar\n",
    "mmin = round(np.nanmin(alts_kf)-0.5,0)\n",
    "mmax = round(np.nanmax(alts_kf)+0.5,0)\n",
    "\n",
    "#Define function to plot pressure anlyses and save to a png file in the Plots directory\n",
    "def plot_one(d,ddate):    \n",
    "    #Mask altimeter analysis over water\n",
    "    alts_kf_2d = mask_grid(alts_kf[d])\n",
    "    #Smooth altimeter analysis for contouring (use higher smoothing level for synoptic analysis)\n",
    "    alts_kf_2d_smooth = ndimage.gaussian_filter(alts_kf[d],sigma=5)\n",
    "    \n",
    "    #Initiatlize figure\n",
    "    fig =plt.figure(figsize=(18,10))\n",
    "    ax1 = plt.subplot(111,projection=crs.PlateCarree())                      \n",
    "    #Set projection\n",
    "    add_map(ax1,'dimgray',1) #Add States/borders\n",
    "    add_gridlines(ax1,True,True,'k',20) #Add grid lines and x/y labels  \n",
    "    im = ax1.imshow(alts_kf_2d,origin='lower',extent=[minLng,maxLng,minLat,maxLat],cmap=cmapp,vmin=mmin,vmax=mmax)\n",
    "    #Contour pressure every 2 hPa\n",
    "    CS = ax1.contour(X,Y,mask_grid(alts_kf_2d_smooth),levels=np.arange(mmin,mmax+2,2),colors='k',alpha=1)\n",
    "    ax1.clabel(CS, CS.levels, inline=True, fmt=\"%1.f\", fontsize=16, colors='k') #Add contour labels\n",
    "    #Set grid bounds\n",
    "    ax1.set_xlim([minLng,maxLng])\n",
    "    ax1.set_ylim([minLat,maxLat])\n",
    "    ax1.set_title('5-min Smartphone Altimeter Analysis '+ddate[9:13]+' UTC '+ddate[6:8]+'/'+ddate[4:6]+'/'+ddate[0:4],fontsize=24)\n",
    "    cb=plt.colorbar(im,fraction=0.023) #Shrink colorbar to fit plot height\n",
    "    cb.ax.set_title('($hPa$)',y=1.02,fontsize=20) #Set colorbar title\n",
    "    cb.ax.tick_params(labelsize=20) #Set colorbar tick size\n",
    "    fig.canvas.draw()\n",
    "    plt.tight_layout()\n",
    "    #Save image with %03d format for animation with ffmpeg\n",
    "    if (d < 10):\n",
    "        dd = '00'+str(d)\n",
    "    elif ((d >= 10) and (d < 100)):\n",
    "        dd = '0'+str(d)\n",
    "    else:\n",
    "        dd = str(d)\n",
    "    plt.savefig('../../../Plots/'+day+'/kfalts_'+dd+'.png')\n",
    "    plt.close()\n",
    "\n",
    "#Perform plotting in parallel (one plot - per core)\n",
    "num_cores = multiprocessing.cpu_count()\n",
    "results = Parallel(n_jobs=num_cores)(delayed(plot_one)(d,ddate) for d,ddate in enumerate(dtlist))"
   ]
  },
  {
   "cell_type": "code",
   "execution_count": 4,
   "metadata": {},
   "outputs": [
    {
     "name": "stderr",
     "output_type": "stream",
     "text": [
      "ffmpeg version 4.1.3 Copyright (c) 2000-2019 the FFmpeg developers\n",
      "  built with gcc 7.3.0 (crosstool-NG 1.23.0.449-a04d0)\n",
      "  configuration: --prefix=/home/disk/p/cmcnich/miniconda3 --cc=/home/conda/feedstock_root/build_artifacts/ffmpeg_1556785800657/_build_env/bin/x86_64-conda_cos6-linux-gnu-cc --disable-doc --disable-openssl --enable-avresample --enable-gnutls --enable-gpl --enable-hardcoded-tables --enable-libfreetype --enable-libopenh264 --enable-libx264 --enable-pic --enable-pthreads --enable-shared --enable-static --enable-version3 --enable-zlib --enable-libmp3lame\n",
      "  libavutil      56. 22.100 / 56. 22.100\n",
      "  libavcodec     58. 35.100 / 58. 35.100\n",
      "  libavformat    58. 20.100 / 58. 20.100\n",
      "  libavdevice    58.  5.100 / 58.  5.100\n",
      "  libavfilter     7. 40.101 /  7. 40.101\n",
      "  libavresample   4.  0.  0 /  4.  0.  0\n",
      "  libswscale      5.  3.100 /  5.  3.100\n",
      "  libswresample   3.  3.100 /  3.  3.100\n",
      "  libpostproc    55.  3.100 / 55.  3.100\n",
      "Input #0, image2, from '../../../Plots/20180414/kfalts_%03d.png':\n",
      "  Duration: 00:00:32.00, start: 0.000000, bitrate: N/A\n",
      "    Stream #0:0: Video: png, rgba(pc), 1800x1000 [SAR 3937:3937 DAR 9:5], 9 fps, 9 tbr, 9 tbn, 9 tbc\n",
      "Stream mapping:\n",
      "  Stream #0:0 -> #0:0 (png (native) -> h264 (libx264))\n",
      "Press [q] to stop, [?] for help\n",
      "[libx264 @ 0x55927c03fd80] using SAR=1/1\n",
      "[libx264 @ 0x55927c03fd80] using cpu capabilities: MMX2 SSE2Fast SSSE3 SSE4.2\n",
      "[libx264 @ 0x55927c03fd80] profile High, level 4.0\n",
      "[libx264 @ 0x55927c03fd80] 264 - core 152 - H.264/MPEG-4 AVC codec - Copyleft 2003-2017 - http://www.videolan.org/x264.html - options: cabac=1 ref=3 deblock=1:0:0 analyse=0x3:0x113 me=hex subme=7 psy=1 psy_rd=1.00:0.00 mixed_ref=1 me_range=16 chroma_me=1 trellis=1 8x8dct=1 cqm=0 deadzone=21,11 fast_pskip=1 chroma_qp_offset=-2 threads=24 lookahead_threads=4 sliced_threads=0 nr=0 decimate=1 interlaced=0 bluray_compat=0 constrained_intra=0 bframes=3 b_pyramid=2 b_adapt=1 b_bias=0 direct=1 weightb=1 open_gop=0 weightp=2 keyint=250 keyint_min=9 scenecut=40 intra_refresh=0 rc_lookahead=40 rc=crf mbtree=1 crf=23.0 qcomp=0.60 qpmin=0 qpmax=69 qpstep=4 ip_ratio=1.40 aq=1:1.00\n",
      "Output #0, mp4, to '../../../Plots/20180414/kfalts_20180414.mp4':\n",
      "  Metadata:\n",
      "    encoder         : Lavf58.20.100\n",
      "    Stream #0:0: Video: h264 (libx264) (avc1 / 0x31637661), yuv420p, 1800x1000 [SAR 1:1 DAR 9:5], q=-1--1, 9 fps, 18432 tbn, 9 tbc\n",
      "    Metadata:\n",
      "      encoder         : Lavc58.35.100 libx264\n",
      "    Side data:\n",
      "      cpb: bitrate max/min/avg: 0/0/0 buffer size: 0 vbv_delay: -1\n",
      "frame=  288 fps= 35 q=-1.0 Lsize=   10536kB time=00:00:31.66 bitrate=2725.6kbits/s speed=3.88x    \n",
      "video:10532kB audio:0kB subtitle:0kB other streams:0kB global headers:0kB muxing overhead: 0.041300%\n",
      "[libx264 @ 0x55927c03fd80] frame I:2     Avg QP:16.02  size:230386\n",
      "[libx264 @ 0x55927c03fd80] frame P:73    Avg QP:20.97  size: 72072\n",
      "[libx264 @ 0x55927c03fd80] frame B:213   Avg QP:24.42  size: 23764\n",
      "[libx264 @ 0x55927c03fd80] consecutive B-frames:  1.4%  0.0%  0.0% 98.6%\n",
      "[libx264 @ 0x55927c03fd80] mb I  I16..4: 28.1% 26.4% 45.5%\n",
      "[libx264 @ 0x55927c03fd80] mb P  I16..4:  2.0%  3.1%  3.8%  P16..4: 13.2% 14.2% 11.5%  0.0%  0.0%    skip:52.1%\n",
      "[libx264 @ 0x55927c03fd80] mb B  I16..4:  0.2%  0.3%  0.5%  B16..8: 14.9% 10.7%  4.4%  direct: 2.7%  skip:66.2%  L0:39.1% L1:39.7% BI:21.2%\n",
      "[libx264 @ 0x55927c03fd80] 8x8 transform intra:31.7% inter:43.8%\n",
      "[libx264 @ 0x55927c03fd80] coded y,uvDC,uvAC intra: 48.9% 81.2% 61.6% inter: 9.6% 17.2% 11.4%\n",
      "[libx264 @ 0x55927c03fd80] i16 v,h,dc,p: 29% 38%  7% 26%\n",
      "[libx264 @ 0x55927c03fd80] i8 v,h,dc,ddl,ddr,vr,hd,vl,hu: 22% 18% 34%  4%  4%  4%  4%  4%  6%\n",
      "[libx264 @ 0x55927c03fd80] i4 v,h,dc,ddl,ddr,vr,hd,vl,hu: 24% 24% 22%  5%  6%  5%  5%  5%  4%\n",
      "[libx264 @ 0x55927c03fd80] i8c dc,h,v,p: 45% 28% 16% 11%\n",
      "[libx264 @ 0x55927c03fd80] Weighted P-Frames: Y:0.0% UV:0.0%\n",
      "[libx264 @ 0x55927c03fd80] ref P L0: 56.7% 13.0% 17.6% 12.7%\n",
      "[libx264 @ 0x55927c03fd80] ref B L0: 89.1%  8.1%  2.8%\n",
      "[libx264 @ 0x55927c03fd80] ref B L1: 96.3%  3.7%\n",
      "[libx264 @ 0x55927c03fd80] kb/s:2695.93\n"
     ]
    },
    {
     "data": {
      "text/plain": [
       "0"
      ]
     },
     "execution_count": 4,
     "metadata": {},
     "output_type": "execute_result"
    }
   ],
   "source": [
    "#If animation (mp4 movie) already exists, remove it so ffmpeg won't ask to overwrite\n",
    "if os.path.isfile('../../../Plots/'+day+'/kfalts_'+day+'.mp4'):\n",
    "    os.system('rm -rf ../../../Plots/'+day+'/kfalts_'+day+'.mp4')\n",
    "#Create mp4 movie from 5-min pressure anlayses saved as pngs\n",
    "os.system('ffmpeg -r 9 -f image2 -s 1920x1080 -i ../../../Plots/'+day+'/kfalts_%03d.png -c:v libx264 -pix_fmt yuv420p ../../../Plots/'+day+'/kfalts_'+day+'.mp4')\n",
    "#(Below) Display MADIS pressure analysis for 14 April, 2018"
   ]
  },
  {
   "cell_type": "code",
   "execution_count": 5,
   "metadata": {},
   "outputs": [
    {
     "data": {
      "text/html": [
       "<div align=\"middle\">\n",
       "<video width=\"80%\" controls>\n",
       "      <source src = \"../../../Plots/20180414/kfalts_20180414.mp4\" type=\"video/mp4\">\n",
       "</video></div>\n"
      ],
      "text/plain": [
       "<IPython.core.display.HTML object>"
      ]
     },
     "metadata": {},
     "output_type": "display_data"
    }
   ],
   "source": [
    "%%HTML\n",
    "<div align=\"middle\">\n",
    "<video width=\"80%\" controls>\n",
    "      <source src = \"../../../Plots/20180414/kfalts_20180414.mp4\" type=\"video/mp4\">\n",
    "</video></div>"
   ]
  },
  {
   "cell_type": "code",
   "execution_count": 6,
   "metadata": {
    "scrolled": false
   },
   "outputs": [],
   "source": [
    "#---- (3) ---- #\n",
    "\n",
    "#Define dates of analysis and observation type\n",
    "day1 = '20180514'\n",
    "day2 = '20180515'\n",
    "otyp = 'altimeter'\n",
    "\n",
    "#Define bounding box\n",
    "minLng = -83.0; maxLng = -70.5; minLat = 38.5; maxLat= 45.0\n",
    "\n",
    "#Get land/sea boolean within bounding box\n",
    "landsea = get_landsea()\n",
    "landsea = landsea[:-1,:]\n",
    "\n",
    "#Retrieve pressure analyses for each day 15 of May, 2018\n",
    "ds1 = xr.open_dataset('../../../data/KF/kfsmart_full_altimeter_'+day1+'.nc')\n",
    "ds2 = xr.open_dataset('../../../data/KF/kfsmart_full_altimeter_'+day2+'.nc')\n",
    "ds_all = xr.concat([ds1,ds2],'Valid')\n",
    "ds1.close(); ds2.close()\n",
    "\n",
    "#Retrieve latitude/longitude from dataset\n",
    "ygrid = ds_all['longitude'].values; xgrid = ds_all['latitude'].values\n",
    "X,Y = np.meshgrid(ygrid,xgrid) #Create 2d coordinates for contour plotting\n",
    "\n",
    "#Retrieve composite reflectivity for each day: 15 of May, 2018\n",
    "dsr_all = xr.open_dataset('../../../data/Radar/cref_201805.nc')\n",
    "\n",
    "#Convert observation times into list of datetime objects\n",
    "dts = ds_all['Valid'].values\n",
    "dtlist = [datetime.utcfromtimestamp(d/1e9).strftime(fmt) for d in dts.tolist()]\n",
    "\n",
    "#Get pressure and reflectivity analyses\n",
    "alts_kf = ds_all['altimeter_rts'].values\n",
    "refl = dsr_all['REFL'].values"
   ]
  },
  {
   "cell_type": "code",
   "execution_count": 7,
   "metadata": {},
   "outputs": [],
   "source": [
    "#Set base font size\n",
    "matplotlib.rcParams.update({'font.size': 20})\n",
    "\n",
    "#Set lower and upper bounds for pressure colorbar\n",
    "mmin = round(np.nanmin(alts_kf)-0.5,0)\n",
    "mmax = round(np.nanmax(alts_kf)+0.5,0)\n",
    "\n",
    "#Define function to plot/save pressure and composite reflectivity analysis \n",
    "def plot_two(d,ddate):      #Get 5-min reflectivity and altimeter analysis\n",
    "\n",
    "    #Start at 1200 UTC 14, May\n",
    "    d = d+144\n",
    "    #Get 5-min reflectivity and altimeter analysis\n",
    "    rfl_2d = refl[d]\n",
    "    #Mask altimeter anlaysis over water\n",
    "    alts_kf_2d = mask_grid(alts_kf[d])\n",
    "    #Smooth altimeter analysis for contouring\n",
    "    alts_kf_2d_smooth = ndimage.gaussian_filter(alts_kf[d],sigma=2.5)\n",
    "    \n",
    "    #Initialize figure\n",
    "    fig =plt.figure(figsize=(26,8))\n",
    "    \n",
    "    #Plot pressure analysis\n",
    "    ax1 = plt.subplot(121,projection=crs.PlateCarree()) #define projection\n",
    "    add_map(ax1,'dimgray',1) #Add States/borders\n",
    "    add_gridlines(ax1,True,True,'k',18) #Add grid lines and x/y labels  \n",
    "    im = ax1.imshow(alts_kf_2d,origin='lower',extent=[minLng,maxLng,minLat,maxLat],cmap=cmapp,vmin=mmin,vmax=mmax)\n",
    "    #Contour pressure every 1 hPa\n",
    "    CS = ax1.contour(X,Y,mask_grid(alts_kf_2d_smooth),levels=np.arange(mmin,mmax+1,1),colors='k',alpha=1)\n",
    "    ax1.clabel(CS, CS.levels, inline=True, fmt=\"%1.f\", fontsize=14, colors='k') #Label contours\n",
    "    #Set grid bounds\n",
    "    ax1.set_xlim([minLng,maxLng])\n",
    "    ax1.set_ylim([minLat,maxLat])\n",
    "    ax1.set_title('Smartphone Altimeter '+ddate[9:13]+' UTC '+ddate[6:8]+'/'+ddate[4:6]+'/'+ddate[0:4],fontsize=22)\n",
    "    cb=plt.colorbar(im,fraction=0.023) #Shrink colorbar to fit plot height\n",
    "    cb.ax.set_title('($hPa$)',y=1.02,fontsize=18) #Set colorbar title\n",
    "    cb.ax.tick_params(labelsize=18) #Set colorbar tick size\n",
    "    \n",
    "    #Plot composite reflectivity analysis\n",
    "    ax2 = plt.subplot(122,projection=crs.PlateCarree())\n",
    "    add_map(ax2,'dimgray',1) #Add States/borders\n",
    "    add_gridlines(ax2,True,False,'k',18) #Add grid lines and x/y labels  \n",
    "    im = ax2.imshow(np.ma.masked_where(rfl_2d<=20,rfl_2d),origin='lower',extent=[minLng,maxLng,minLat,maxLat],cmap=cmapp_radar,vmin=-32,vmax=90,zorder=5,alpha=0.8)\n",
    "    #Set grid bounds\n",
    "    ax2.set_xlim([minLng,maxLng])\n",
    "    ax2.set_ylim([minLat,maxLat])\n",
    "    ax2.set_title('Composite Reflectivity',fontsize=22)\n",
    "    cb=plt.colorbar(im,fraction=0.023)\n",
    "    cb.ax.set_title('($hPa$)',y=1.02,fontsize=18)\n",
    "    cb.ax.tick_params(labelsize=18)\n",
    "    \n",
    "    d = d-144\n",
    "    #Save image with %03d format for animation with ffmpeg\n",
    "    if (d < 10):\n",
    "        dd = '00'+str(d)\n",
    "    elif ((d >= 10) and (d < 100)):\n",
    "        dd = '0'+str(d)\n",
    "    else:\n",
    "        dd = str(d)\n",
    "        \n",
    "    plt.suptitle('5-min Analysis '+ddate[9:13]+' UTC '+ddate[6:8]+'/'+ddate[4:6]+'/'+ddate[0:4],fontsize=24)\n",
    "    fig.canvas.draw()\n",
    "    plt.tight_layout()\n",
    "    plt.savefig('../../../Plots/'+day2+'/kfcomb_'+dd+'.png')\n",
    "    plt.close()\n",
    "    \n",
    "#Perform plotting in parallel (one plot - per core)\n",
    "num_cores = multiprocessing.cpu_count()\n",
    "results = Parallel(n_jobs=num_cores)(delayed(plot_two)(d,ddate) for d,ddate in enumerate(dtlist[144:]))"
   ]
  },
  {
   "cell_type": "code",
   "execution_count": 8,
   "metadata": {},
   "outputs": [
    {
     "name": "stderr",
     "output_type": "stream",
     "text": [
      "ffmpeg version 4.1.3 Copyright (c) 2000-2019 the FFmpeg developers\n",
      "  built with gcc 7.3.0 (crosstool-NG 1.23.0.449-a04d0)\n",
      "  configuration: --prefix=/home/disk/p/cmcnich/miniconda3 --cc=/home/conda/feedstock_root/build_artifacts/ffmpeg_1556785800657/_build_env/bin/x86_64-conda_cos6-linux-gnu-cc --disable-doc --disable-openssl --enable-avresample --enable-gnutls --enable-gpl --enable-hardcoded-tables --enable-libfreetype --enable-libopenh264 --enable-libx264 --enable-pic --enable-pthreads --enable-shared --enable-static --enable-version3 --enable-zlib --enable-libmp3lame\n",
      "  libavutil      56. 22.100 / 56. 22.100\n",
      "  libavcodec     58. 35.100 / 58. 35.100\n",
      "  libavformat    58. 20.100 / 58. 20.100\n",
      "  libavdevice    58.  5.100 / 58.  5.100\n",
      "  libavfilter     7. 40.101 /  7. 40.101\n",
      "  libavresample   4.  0.  0 /  4.  0.  0\n",
      "  libswscale      5.  3.100 /  5.  3.100\n",
      "  libswresample   3.  3.100 /  3.  3.100\n",
      "  libpostproc    55.  3.100 / 55.  3.100\n",
      "Input #0, image2, from '../../../Plots/20180515/kfcomb_%03d.png':\n",
      "  Duration: 00:00:36.00, start: 0.000000, bitrate: N/A\n",
      "    Stream #0:0: Video: png, rgba(pc), 2600x800 [SAR 3937:3937 DAR 13:4], 12 fps, 12 tbr, 12 tbn, 12 tbc\n",
      "Stream mapping:\n",
      "  Stream #0:0 -> #0:0 (png (native) -> h264 (libx264))\n",
      "Press [q] to stop, [?] for help\n",
      "[libx264 @ 0x55f51f387640] using SAR=1/1\n",
      "[libx264 @ 0x55f51f387640] using cpu capabilities: MMX2 SSE2Fast SSSE3 SSE4.2\n",
      "[libx264 @ 0x55f51f387640] profile High, level 4.0\n",
      "[libx264 @ 0x55f51f387640] 264 - core 152 - H.264/MPEG-4 AVC codec - Copyleft 2003-2017 - http://www.videolan.org/x264.html - options: cabac=1 ref=3 deblock=1:0:0 analyse=0x3:0x113 me=hex subme=7 psy=1 psy_rd=1.00:0.00 mixed_ref=1 me_range=16 chroma_me=1 trellis=1 8x8dct=1 cqm=0 deadzone=21,11 fast_pskip=1 chroma_qp_offset=-2 threads=24 lookahead_threads=4 sliced_threads=0 nr=0 decimate=1 interlaced=0 bluray_compat=0 constrained_intra=0 bframes=3 b_pyramid=2 b_adapt=1 b_bias=0 direct=1 weightb=1 open_gop=0 weightp=2 keyint=250 keyint_min=12 scenecut=40 intra_refresh=0 rc_lookahead=40 rc=crf mbtree=1 crf=23.0 qcomp=0.60 qpmin=0 qpmax=69 qpstep=4 ip_ratio=1.40 aq=1:1.00\n",
      "Output #0, mp4, to '../../../Plots/20180515/kfcomb_20180515.mp4':\n",
      "  Metadata:\n",
      "    encoder         : Lavf58.20.100\n",
      "    Stream #0:0: Video: h264 (libx264) (avc1 / 0x31637661), yuv420p, 2600x800 [SAR 1:1 DAR 13:4], q=-1--1, 12 fps, 12288 tbn, 12 tbc\n",
      "    Metadata:\n",
      "      encoder         : Lavc58.35.100 libx264\n",
      "    Side data:\n",
      "      cpb: bitrate max/min/avg: 0/0/0 buffer size: 0 vbv_delay: -1\n",
      "frame=  432 fps= 37 q=-1.0 Lsize=   13963kB time=00:00:35.75 bitrate=3199.6kbits/s speed=3.07x    \n",
      "video:13957kB audio:0kB subtitle:0kB other streams:0kB global headers:0kB muxing overhead: 0.043591%\n",
      "[libx264 @ 0x55f51f387640] frame I:2     Avg QP:14.50  size:202876\n",
      "[libx264 @ 0x55f51f387640] frame P:109   Avg QP:24.02  size: 52600\n",
      "[libx264 @ 0x55f51f387640] frame B:321   Avg QP:28.07  size: 25396\n",
      "[libx264 @ 0x55f51f387640] consecutive B-frames:  0.9%  0.0%  0.0% 99.1%\n",
      "[libx264 @ 0x55f51f387640] mb I  I16..4: 35.2% 29.8% 35.0%\n",
      "[libx264 @ 0x55f51f387640] mb P  I16..4:  1.2%  2.2%  4.3%  P16..4:  6.8%  5.2%  4.6%  0.0%  0.0%    skip:75.8%\n",
      "[libx264 @ 0x55f51f387640] mb B  I16..4:  0.2%  0.4%  1.0%  B16..8:  7.9%  5.2%  3.1%  direct: 1.3%  skip:80.8%  L0:42.9% L1:40.4% BI:16.8%\n",
      "[libx264 @ 0x55f51f387640] 8x8 transform intra:27.7% inter:37.8%\n",
      "[libx264 @ 0x55f51f387640] coded y,uvDC,uvAC intra: 60.0% 77.2% 69.1% inter: 6.2% 9.2% 6.4%\n",
      "[libx264 @ 0x55f51f387640] i16 v,h,dc,p: 41% 33% 18%  7%\n",
      "[libx264 @ 0x55f51f387640] i8 v,h,dc,ddl,ddr,vr,hd,vl,hu: 19% 15% 50%  3%  2%  2%  3%  2%  4%\n",
      "[libx264 @ 0x55f51f387640] i4 v,h,dc,ddl,ddr,vr,hd,vl,hu: 20% 23% 24%  6%  5%  5%  6%  5%  7%\n",
      "[libx264 @ 0x55f51f387640] i8c dc,h,v,p: 56% 21% 13%  9%\n",
      "[libx264 @ 0x55f51f387640] Weighted P-Frames: Y:0.0% UV:0.0%\n",
      "[libx264 @ 0x55f51f387640] ref P L0: 53.3% 16.7% 17.6% 12.4%\n",
      "[libx264 @ 0x55f51f387640] ref B L0: 85.6% 11.3%  3.2%\n",
      "[libx264 @ 0x55f51f387640] ref B L1: 95.3%  4.7%\n",
      "[libx264 @ 0x55f51f387640] kb/s:3175.82\n"
     ]
    },
    {
     "data": {
      "text/plain": [
       "0"
      ]
     },
     "execution_count": 8,
     "metadata": {},
     "output_type": "execute_result"
    }
   ],
   "source": [
    "#If animation (mp4 movie) already exists, remove it so ffmpeg won't ask to overwrite\n",
    "if os.path.isfile('../../../Plots/'+day2+'/kfcomb_'+day2+'.mp4'):\n",
    "    os.system('rm -rf ../../../Plots/'+day2+'/kfcomb_'+day2+'.mp4')\n",
    "#Create mp4 movie from 5-min pressure/reflectivity anlayses saved as pngs\n",
    "os.system('ffmpeg -r 12 -f image2 -s 1920x1080 -i ../../../Plots/'+day2+'/kfcomb_%03d.png -c:v libx264 -pix_fmt yuv420p ../../../Plots/'+day2+'/kfcomb_'+day2+'.mp4')\n",
    "#(Below): Display video"
   ]
  },
  {
   "cell_type": "code",
   "execution_count": 9,
   "metadata": {
    "scrolled": false
   },
   "outputs": [
    {
     "data": {
      "text/html": [
       "<div align=\"middle\">\n",
       "<video width=\"100%\" controls>\n",
       "      <source src = \"../../../Plots/20180515/kfcomb_20180515.mp4\" type=\"video/mp4\">\n",
       "</video></div>\n"
      ],
      "text/plain": [
       "<IPython.core.display.HTML object>"
      ]
     },
     "metadata": {},
     "output_type": "display_data"
    }
   ],
   "source": [
    "%%HTML\n",
    "<div align=\"middle\">\n",
    "<video width=\"100%\" controls>\n",
    "      <source src = \"../../../Plots/20180515/kfcomb_20180515.mp4\" type=\"video/mp4\">\n",
    "</video></div>"
   ]
  },
  {
   "cell_type": "code",
   "execution_count": 10,
   "metadata": {},
   "outputs": [],
   "source": [
    "#Get dimensions of pressure anlaysis\n",
    "ys = alts_kf.shape[1] #lat dim\n",
    "xs = alts_kf.shape[2] #lng dim\n",
    "\n",
    "#Set upper and lower limits of band pass filter\n",
    "highcut = 1/(3600*2)\n",
    "lowcut = 1/(3600*6)\n",
    "#highcut = 1/600.0\n",
    "#lowcut = 1/(3600*4)\n",
    "fs = 1/300.0 #Set temporal frequency of analysis (in hertz)\n",
    "order=5\n",
    "\n",
    "#Define highpass/bandpass filter function\n",
    "def butter_bandpass(lowcut, highcut, fs, order=5):\n",
    "        nyq = 0.5 * fs #nyquist frequency\n",
    "        low = lowcut / nyq #lower limit filter\n",
    "        high = highcut / nyq #upper limit of filter\n",
    "        b, a = butter(order, [low, high], btype='band') #Perform bandpass\n",
    "        #b, a = butter(order, [high], btype = 'highpass')\n",
    "        return b, a\n",
    "\n",
    "#Function to perform band pass filtering\n",
    "def butter_bandpass_filter(data, lowcut, highcut, fs, order=5):\n",
    "        b, a = butter_bandpass(lowcut, highcut, fs, order=order)\n",
    "        y = signal.filtfilt(b, a, data)\n",
    "        return y\n",
    "\n",
    "#Filter time-series\n",
    "def filter_ts(vvar):\n",
    "        meso = butter_bandpass_filter(vvar, lowcut, highcut, fs, order)\n",
    "        return meso\n",
    "\n",
    "#Function to perform bandpass filtering of pressure time series at grid point (y,x)\n",
    "def perform_filter(vvar,x,y):\n",
    "    if (y == xs-1):\n",
    "            print(x)\n",
    "    \n",
    "    #Get bandpass filtered time-series\n",
    "    meso = filter_ts(vvar)\n",
    "    return meso"
   ]
  },
  {
   "cell_type": "code",
   "execution_count": 11,
   "metadata": {},
   "outputs": [],
   "source": [
    "#Get list of latitude/longitude pairs for every grid point in the analysis domain\n",
    "xy_pair = [];\n",
    "for i in range(0,ys):\n",
    "    for j in range(0,xs):\n",
    "        xy_pair.append((i,j))\n",
    "\n",
    "#Get altimeter and reflectivity analyses over the two-day period (14-15, May 2018) \n",
    "alts_kf = ds_all['altimeter_rts'].values\n",
    "refl = dsr_all['REFL'].values\n",
    "        \n",
    "#Perform bandpass filtering in parallel\n",
    "num_cores = multiprocessing.cpu_count()\n",
    "vvar_meso = Parallel(n_jobs=num_cores)(delayed(perform_filter)(alts_kf[:,x,y],x,y) for x,y in xy_pair)\n",
    "\n",
    "#Convert list of analysis times to list of datetime objects\n",
    "dts = ds_all['Valid'].values\n",
    "dtlist = [datetime.utcfromtimestamp(d/1e9).strftime(fmt) for d in dts.tolist()]\n",
    "\n",
    "#Reshape the bandpass filtered pressure dataset so its dimensions are (Time, Latitude, Longitude)\n",
    "vvar_meso = np.float32(vvar_meso)\n",
    "nshp = (ys,xs,len(dtlist))\n",
    "vvar_meso = np.reshape(vvar_meso,nshp).T\n",
    "vvar_meso = np.swapaxes(vvar_meso,1,2)\n",
    "\n",
    "#Write bandpass filtered pressure perturbations to NetCDF\n",
    "ds = xr.Dataset()\n",
    "ds['altimeter_meso'] = xr.DataArray(vvar_meso,coords={'Valid':dts,'latitude':ds_all['latitude'].values,'longitude':ds_all['longitude'].values},dims=('Valid','latitude','longitude'))\n",
    "#ds.to_netcdf('../../data/KF/kfmeso_bpass_'+day2+'.nc')\n",
    "ds.to_netcdf('../../../data/KF/kfsmart_bpass_'+otyp+'_'+day2+'.nc')"
   ]
  },
  {
   "cell_type": "code",
   "execution_count": 12,
   "metadata": {},
   "outputs": [],
   "source": [
    "#Set base font size\n",
    "matplotlib.rcParams.update({'font.size': 20})\n",
    "\n",
    "#Get land/sea boolean within bounding box\n",
    "landsea = get_landsea()\n",
    "landsea = landsea[:-1,:]\n",
    "\n",
    "#Get latitude/longitude and 2D coordinates of analysis domain\n",
    "xgrid = ds_all['longitude'].values; ygrid = ds_all['latitude'].values\n",
    "X,Y = np.meshgrid(xgrid,ygrid)\n",
    "\n",
    "#Define function to mesoscale pressure perturbations and composite reflectivity analysis\n",
    "def plot_two(d,ddate):  \n",
    "    #Start at 1200 UTC 14, May\n",
    "    d = d+144\n",
    "    #Retrieve 5-min reflectivity and altimeter analysis\n",
    "    rfl_2d = refl[d]\n",
    "    #Mask altimeter analysis over water\n",
    "    vvar_meso_2d = mask_grid(vvar_meso[d])\n",
    "    #Smooth altimeter analysis for contouring\n",
    "    vvar_meso_2d_smooth = ndimage.gaussian_filter(vvar_meso_2d,sigma=2.5)\n",
    "    \n",
    "    #Initialize Figure\n",
    "    fig =plt.figure(figsize=(26,8))\n",
    "    \n",
    "    #Plot mesoscale (bandpass) pressure perturbation analysis\n",
    "    ax1 = plt.subplot(121,projection=crs.PlateCarree())\n",
    "    add_map(ax1,'dimgray',1) #Add States/borders\n",
    "    add_gridlines(ax1,True,True,'k',18) #Add grid lines and x/y labels  \n",
    "    im = ax1.imshow(vvar_meso_2d,origin='lower',extent=[minLng,maxLng,minLat,maxLat],cmap=cmr.fusion_r,vmin=-2,vmax=2)\n",
    "    #Contour positive and negative perturbations at 0.75 and -0.75 hPa, respectively \n",
    "    CS = ax1.contour(X,Y,vvar_meso_2d,levels=[0.75],colors='k',alpha=1)\n",
    "    CS = ax1.contour(X,Y,vvar_meso_2d,levels=[-0.75],ls='--',colors='k',alpha=1)\n",
    "    ax1.clabel(CS, CS.levels, inline=True, fmt=\"%1.2f\", fontsize=14, colors='k') #add contour labels\n",
    "    #Set grid bounds\n",
    "    ax1.set_xlim([minLng,maxLng])\n",
    "    ax1.set_ylim([minLat,maxLat])\n",
    "    ax1.set_title('Mesoscale (2-6 h) Band-pass Altimeter',fontsize=22)\n",
    "    cb=plt.colorbar(im,fraction=0.023) #Shrink colorbar to fit plot height\n",
    "    cb.ax.set_title('($hPa$)',y=1.02,fontsize=18) #Set colorbar title\n",
    "    cb.ax.tick_params(labelsize=18) #Set colorbar tick size   \n",
    "    \n",
    "    #Plot composite reflectivity analysis\n",
    "    ax2 = plt.subplot(122,projection=crs.PlateCarree())\n",
    "    add_map(ax2,'dimgray',1) #Add States/borders\n",
    "    add_gridlines(ax2,True,True,'k',18) #Add grid lines and x/y labels  \n",
    "    im = ax2.imshow(rfl_2d,origin='lower',extent=[minLng,maxLng,minLat,maxLat],cmap=cmapp_radar,vmin=-32,vmax=90,zorder=2,alpha=0.8)\n",
    "    #Set grid bounds\n",
    "    ax2.set_xlim([minLng,maxLng])\n",
    "    ax2.set_ylim([minLat,maxLat])\n",
    "    ax2.set_title('Composite Reflectivity',fontsize=22)\n",
    "    cb=plt.colorbar(im,fraction=0.023) #Shrink colorbar to fit plot height\n",
    "    cb.ax.set_title('($dBZ$)',y=1.02,fontsize=18) #Set colorbar title\n",
    "    cb.ax.tick_params(labelsize=18) #Set colorbar tick size\n",
    "        \n",
    "    #Save image with %03d format for animation with ffmpeg\n",
    "    d = d-144\n",
    "    if (d < 10):\n",
    "        dd = '00'+str(d)\n",
    "    elif ((d >= 10) and (d < 100)):\n",
    "        dd = '0'+str(d)\n",
    "    else:\n",
    "        dd = str(d)\n",
    "        \n",
    "    plt.suptitle('5-min Analysis '+ddate[9:13]+' UTC '+ddate[6:8]+'/'+ddate[4:6]+'/'+ddate[0:4],fontsize=24)\n",
    "    fig.canvas.draw()\n",
    "    plt.tight_layout()\n",
    "    plt.savefig('../../../Plots/'+day2+'/kfpert_'+dd+'.png')\n",
    "    plt.close()\n",
    "    \n",
    "#Perform plotting in parallel (one plot - per core)\n",
    "num_cores = multiprocessing.cpu_count()\n",
    "results = Parallel(n_jobs=num_cores)(delayed(plot_two)(d,ddate) for d,ddate in enumerate(dtlist[144:]))"
   ]
  },
  {
   "cell_type": "code",
   "execution_count": 13,
   "metadata": {},
   "outputs": [
    {
     "name": "stderr",
     "output_type": "stream",
     "text": [
      "ffmpeg version 4.1.3 Copyright (c) 2000-2019 the FFmpeg developers\n",
      "  built with gcc 7.3.0 (crosstool-NG 1.23.0.449-a04d0)\n",
      "  configuration: --prefix=/home/disk/p/cmcnich/miniconda3 --cc=/home/conda/feedstock_root/build_artifacts/ffmpeg_1556785800657/_build_env/bin/x86_64-conda_cos6-linux-gnu-cc --disable-doc --disable-openssl --enable-avresample --enable-gnutls --enable-gpl --enable-hardcoded-tables --enable-libfreetype --enable-libopenh264 --enable-libx264 --enable-pic --enable-pthreads --enable-shared --enable-static --enable-version3 --enable-zlib --enable-libmp3lame\n",
      "  libavutil      56. 22.100 / 56. 22.100\n",
      "  libavcodec     58. 35.100 / 58. 35.100\n",
      "  libavformat    58. 20.100 / 58. 20.100\n",
      "  libavdevice    58.  5.100 / 58.  5.100\n",
      "  libavfilter     7. 40.101 /  7. 40.101\n",
      "  libavresample   4.  0.  0 /  4.  0.  0\n",
      "  libswscale      5.  3.100 /  5.  3.100\n",
      "  libswresample   3.  3.100 /  3.  3.100\n",
      "  libpostproc    55.  3.100 / 55.  3.100\n",
      "Input #0, image2, from '../../../Plots/20180515/kfpert_%03d.png':\n",
      "  Duration: 00:00:36.00, start: 0.000000, bitrate: N/A\n",
      "    Stream #0:0: Video: png, rgba(pc), 2600x800 [SAR 3937:3937 DAR 13:4], 12 fps, 12 tbr, 12 tbn, 12 tbc\n",
      "Stream mapping:\n",
      "  Stream #0:0 -> #0:0 (png (native) -> h264 (libx264))\n",
      "Press [q] to stop, [?] for help\n",
      "[libx264 @ 0x559b2785db40] using SAR=1/1\n",
      "[libx264 @ 0x559b2785db40] using cpu capabilities: MMX2 SSE2Fast SSSE3 SSE4.2\n",
      "[libx264 @ 0x559b2785db40] profile High, level 4.0\n",
      "[libx264 @ 0x559b2785db40] 264 - core 152 - H.264/MPEG-4 AVC codec - Copyleft 2003-2017 - http://www.videolan.org/x264.html - options: cabac=1 ref=3 deblock=1:0:0 analyse=0x3:0x113 me=hex subme=7 psy=1 psy_rd=1.00:0.00 mixed_ref=1 me_range=16 chroma_me=1 trellis=1 8x8dct=1 cqm=0 deadzone=21,11 fast_pskip=1 chroma_qp_offset=-2 threads=24 lookahead_threads=4 sliced_threads=0 nr=0 decimate=1 interlaced=0 bluray_compat=0 constrained_intra=0 bframes=3 b_pyramid=2 b_adapt=1 b_bias=0 direct=1 weightb=1 open_gop=0 weightp=2 keyint=250 keyint_min=12 scenecut=40 intra_refresh=0 rc_lookahead=40 rc=crf mbtree=1 crf=23.0 qcomp=0.60 qpmin=0 qpmax=69 qpstep=4 ip_ratio=1.40 aq=1:1.00\n",
      "Output #0, mp4, to '../../../Plots/20180515/kfpert_20180515.mp4':\n",
      "  Metadata:\n",
      "    encoder         : Lavf58.20.100\n",
      "    Stream #0:0: Video: h264 (libx264) (avc1 / 0x31637661), yuv420p, 2600x800 [SAR 1:1 DAR 13:4], q=-1--1, 12 fps, 12288 tbn, 12 tbc\n",
      "    Metadata:\n",
      "      encoder         : Lavc58.35.100 libx264\n",
      "    Side data:\n",
      "      cpb: bitrate max/min/avg: 0/0/0 buffer size: 0 vbv_delay: -1\n",
      "frame=  432 fps= 38 q=-1.0 Lsize=   10842kB time=00:00:35.75 bitrate=2484.5kbits/s speed=3.15x    \n",
      "video:10836kB audio:0kB subtitle:0kB other streams:0kB global headers:0kB muxing overhead: 0.055820%\n",
      "[libx264 @ 0x559b2785db40] frame I:2     Avg QP:15.26  size:160948\n",
      "[libx264 @ 0x559b2785db40] frame P:109   Avg QP:23.38  size: 41020\n",
      "[libx264 @ 0x559b2785db40] frame B:321   Avg QP:26.65  size: 19634\n",
      "[libx264 @ 0x559b2785db40] consecutive B-frames:  0.9%  0.0%  0.0% 99.1%\n",
      "[libx264 @ 0x559b2785db40] mb I  I16..4: 36.0% 34.2% 29.8%\n",
      "[libx264 @ 0x559b2785db40] mb P  I16..4:  3.6%  5.4%  3.7%  P16..4:  6.8%  4.3%  2.6%  0.0%  0.0%    skip:73.6%\n",
      "[libx264 @ 0x559b2785db40] mb B  I16..4:  0.5%  0.6%  0.9%  B16..8:  7.2%  2.7%  1.7%  direct: 1.7%  skip:84.7%  L0:43.4% L1:42.0% BI:14.6%\n",
      "[libx264 @ 0x559b2785db40] 8x8 transform intra:38.6% inter:53.9%\n",
      "[libx264 @ 0x559b2785db40] coded y,uvDC,uvAC intra: 58.3% 75.3% 38.7% inter: 6.4% 6.3% 3.5%\n",
      "[libx264 @ 0x559b2785db40] i16 v,h,dc,p: 32% 39%  7% 21%\n",
      "[libx264 @ 0x559b2785db40] i8 v,h,dc,ddl,ddr,vr,hd,vl,hu: 23% 25% 29%  4%  3%  3%  4%  4%  5%\n",
      "[libx264 @ 0x559b2785db40] i4 v,h,dc,ddl,ddr,vr,hd,vl,hu: 20% 26% 22%  5%  5%  4%  6%  4%  8%\n",
      "[libx264 @ 0x559b2785db40] i8c dc,h,v,p: 46% 24% 14% 16%\n",
      "[libx264 @ 0x559b2785db40] Weighted P-Frames: Y:0.0% UV:0.0%\n",
      "[libx264 @ 0x559b2785db40] ref P L0: 49.7% 16.5% 19.4% 14.4%\n",
      "[libx264 @ 0x559b2785db40] ref B L0: 83.9% 12.3%  3.8%\n",
      "[libx264 @ 0x559b2785db40] ref B L1: 95.7%  4.3%\n",
      "[libx264 @ 0x559b2785db40] kb/s:2465.72\n"
     ]
    },
    {
     "data": {
      "text/plain": [
       "0"
      ]
     },
     "execution_count": 13,
     "metadata": {},
     "output_type": "execute_result"
    }
   ],
   "source": [
    "#If animation (mp4 movie) already exists, remove it so ffmpeg won't ask to overwrite\n",
    "if os.path.isfile('../../../Plots/'+day2+'/kfpert_'+day2+'.mp4'):\n",
    "    os.system('rm -rf ../../../Plots/'+day2+'/kfpert_'+day2+'.mp4')\n",
    "#Create mp4 movie from 5-min pressure perturbation / reflectivity anlayses saved as pngs\n",
    "os.system('ffmpeg -r 12 -f image2 -s 1920x1080 -i ../../../Plots/'+day2+'/kfpert_%03d.png -c:v libx264 -pix_fmt yuv420p ../../../Plots/'+day2+'/kfpert_'+day2+'.mp4')\n",
    "#(Below) display video"
   ]
  },
  {
   "cell_type": "code",
   "execution_count": 14,
   "metadata": {
    "scrolled": false
   },
   "outputs": [
    {
     "data": {
      "text/html": [
       "<div align=\"middle\">\n",
       "<video width=\"100%\" controls>\n",
       "      <source src = \"../../../Plots/20180515/kfpert_20180515.mp4\" type=\"video/mp4\">\n",
       "</video></div>\n"
      ],
      "text/plain": [
       "<IPython.core.display.HTML object>"
      ]
     },
     "metadata": {},
     "output_type": "display_data"
    }
   ],
   "source": [
    "%%HTML\n",
    "<div align=\"middle\">\n",
    "<video width=\"100%\" controls>\n",
    "      <source src = \"../../../Plots/20180515/kfpert_20180515.mp4\" type=\"video/mp4\">\n",
    "</video></div>"
   ]
  }
 ],
 "metadata": {
  "kernelspec": {
   "display_name": "Python 3 (ipykernel)",
   "language": "python",
   "name": "python3"
  },
  "language_info": {
   "codemirror_mode": {
    "name": "ipython",
    "version": 3
   },
   "file_extension": ".py",
   "mimetype": "text/x-python",
   "name": "python",
   "nbconvert_exporter": "python",
   "pygments_lexer": "ipython3",
   "version": "3.7.6"
  },
  "toc": {
   "base_numbering": 1,
   "nav_menu": {},
   "number_sections": false,
   "sideBar": true,
   "skip_h1_title": false,
   "title_cell": "Table of Contents",
   "title_sidebar": "Contents",
   "toc_cell": false,
   "toc_position": {},
   "toc_section_display": true,
   "toc_window_display": false
  },
  "varInspector": {
   "cols": {
    "lenName": 16,
    "lenType": 16,
    "lenVar": 40
   },
   "kernels_config": {
    "python": {
     "delete_cmd_postfix": "",
     "delete_cmd_prefix": "del ",
     "library": "var_list.py",
     "varRefreshCmd": "print(var_dic_list())"
    },
    "r": {
     "delete_cmd_postfix": ") ",
     "delete_cmd_prefix": "rm(",
     "library": "var_list.r",
     "varRefreshCmd": "cat(var_dic_list()) "
    }
   },
   "types_to_exclude": [
    "module",
    "function",
    "builtin_function_or_method",
    "instance",
    "_Feature"
   ],
   "window_display": false
  }
 },
 "nbformat": 4,
 "nbformat_minor": 4
}
